<?xml version="1.0" encoding="UTF-8"?>
<!-- site plan logo  -->

<svg 
  width="100%"
  height="100%"
  viewBox="0 0 180 180"
  xmlns="http://www.w3.org/2000/svg"
>
  <defs>
    <style>@import url("../css/styles.css");</style>
  </defs>

  <!-- Edges -->
  <polyline class="logos" points="90,175 90,58 7,35 90,15 173,35 90,58" />
  <polyline class="logos" points="6,35 9,125 90,175 171,125 174,35" />
  <!-- 5 -->
  <ellipse class="logos die" cx="90" cy="26" rx="7" ry="3" />
  <ellipse class="logos die" cx="90" cy="36" rx="8" ry="4" />
  <ellipse class="logos die" cx="55" cy="36" rx="8" ry="4" />
  <ellipse class="logos die" cx="125" cy="36" rx="8" ry="4" />
  <ellipse class="logos die" cx="90" cy="46" rx="9" ry="4" />
  <!-- 4 -->
  <ellipse class="logos die" cx="30" cy="67" rx="6" ry="8" />
  <ellipse class="logos die" cx="65" cy="80" rx="7" ry="9" />
  <ellipse class="logos die" cx="30" cy="110" rx="6" ry="8" />
  <ellipse class="logos die" cx="65" cy="130" rx="7" ry="9" />
  <!-- 3 -->
  <ellipse class="logos die" cx="115" cy="130" rx="8" ry="10" />
  <ellipse class="logos die" cx="135" cy="95" rx="7" ry="9" />
  <ellipse class="logos die" cx="155" cy="65" rx="6" ry="8" />
 
</svg>


